<svg id="bg1" xmlns="http://www.w3.org/2000/svg" xmlns:xlink="http://www.w3.org/1999/xlink" viewBox="0 0 803.48 450"><defs><style>.cls-1{fill:url(#radial-gradient);}.cls-2{opacity:0.3;}.cls-3{fill:#7979d3;}</style><radialGradient id="radial-gradient" cx="-57.89" cy="-28.73" r="673.94" gradientTransform="translate(5.12) scale(1.34 1)" gradientUnits="userSpaceOnUse"><stop offset="0" stop-color="#1852b7"/><stop offset="0.03" stop-color="#1852b7" stop-opacity="0.9"/><stop offset="0.11" stop-color="#1852b7" stop-opacity="0.66"/><stop offset="0.2" stop-color="#1852b7" stop-opacity="0.46"/><stop offset="0.29" stop-color="#1852b7" stop-opacity="0.29"/><stop offset="0.39" stop-color="#1852b7" stop-opacity="0.16"/><stop offset="0.49" stop-color="#1852b7" stop-opacity="0.07"/><stop offset="0.6" stop-color="#1852b7" stop-opacity="0.02"/><stop offset="0.74" stop-color="#1852b7" stop-opacity="0"/></radialGradient></defs><title>bg</title><rect class="cls-1" width="803.48" height="450"/><g class="cls-2"><path class="cls-3" d="M135.75,349.71h-1V319.57c0-14.43,14.84-26.18,33.09-26.18H398.29v.8H167.83c-17.69,0-32.08,11.39-32.08,25.38Z" transform="translate(3.82)"/><path class="cls-3" d="M125.8,332.46h-1V319c0-18,18.51-32.64,41.25-32.64H398.29v.8H166c-22.19,0-40.24,14.28-40.24,31.84Z" transform="translate(3.82)"/><path class="cls-3" d="M115.26,339.37h-1V318.86c0-22,22.66-40,50.53-40H398.29v.8H164.78c-27.31,0-49.52,17.57-49.52,39.17Z" transform="translate(3.82)"/><path class="cls-3" d="M106.9,360.54h-1V316.26c0-24.74,25.44-44.87,56.71-44.87H398.29v.8H162.6c-30.72,0-55.7,19.77-55.7,44.07Z" transform="translate(3.82)"/><path class="cls-3" d="M135.24,353.34A2.2,2.2,0,1,1,138,351.2,2.47,2.47,0,0,1,135.24,353.34Zm0-3.48a1.38,1.38,0,1,0,1.7,1.34A1.55,1.55,0,0,0,135.24,349.86Z" transform="translate(3.82)"/><path class="cls-3" d="M125.29,336a2.2,2.2,0,1,1,2.71-2.14A2.47,2.47,0,0,1,125.29,336Zm0-3.48a1.38,1.38,0,1,0,1.7,1.34A1.55,1.55,0,0,0,125.29,332.48Z" transform="translate(3.82)"/><path class="cls-3" d="M114.75,342.9a2.2,2.2,0,1,1,2.71-2.14A2.47,2.47,0,0,1,114.75,342.9Zm0-3.48a1.38,1.38,0,1,0,1.7,1.34A1.55,1.55,0,0,0,114.75,339.42Z" transform="translate(3.82)"/><path class="cls-3" d="M106.39,364a2.2,2.2,0,1,1,2.71-2.14A2.47,2.47,0,0,1,106.39,364Zm0-3.48a1.38,1.38,0,1,0,1.7,1.34A1.55,1.55,0,0,0,106.39,360.54Z" transform="translate(3.82)"/><path class="cls-3" d="M397.77,230H167.32c-18.25,0-33.1-11.75-33.1-26.19V173.68h1v30.13c0,14,14.4,25.39,32.09,25.39H397.77Z" transform="translate(3.82)"/><path class="cls-3" d="M397.77,237H165.53c-22.75,0-41.26-14.64-41.26-32.64V190.93h1v13.43c0,17.55,18.06,31.84,40.25,31.84H397.77Z" transform="translate(3.82)"/><path class="cls-3" d="M397.77,244.5H164.26c-27.86,0-50.53-17.94-50.53-40V184h1v20.51c0,21.6,22.22,39.18,49.52,39.18H397.77Z" transform="translate(3.82)"/><path class="cls-3" d="M397.77,252H162.08c-31.27,0-56.71-20.13-56.71-44.87V162.85h1v44.28c0,24.3,25,44.07,55.7,44.07H397.77Z" transform="translate(3.82)"/><path class="cls-3" d="M134.73,174.33a2.2,2.2,0,1,1,2.7-2.14A2.48,2.48,0,0,1,134.73,174.33Zm0-3.49a1.38,1.38,0,1,0,1.69,1.35A1.56,1.56,0,0,0,134.73,170.84Z" transform="translate(3.82)"/><path class="cls-3" d="M124.78,191.71a2.2,2.2,0,1,1,2.71-2.14A2.48,2.48,0,0,1,124.78,191.71Zm0-3.48a1.38,1.38,0,1,0,1.69,1.34A1.55,1.55,0,0,0,124.78,188.23Z" transform="translate(3.82)"/><path class="cls-3" d="M114.24,184.77a2.2,2.2,0,1,1,2.71-2.14A2.48,2.48,0,0,1,114.24,184.77Zm0-3.48a1.38,1.38,0,1,0,1.69,1.34A1.55,1.55,0,0,0,114.24,181.29Z" transform="translate(3.82)"/><path class="cls-3" d="M105.88,163.65a2.2,2.2,0,1,1,2.7-2.14A2.48,2.48,0,0,1,105.88,163.65Zm0-3.49a1.38,1.38,0,1,0,1.69,1.35A1.56,1.56,0,0,0,105.88,160.16Z" transform="translate(3.82)"/><rect class="cls-3" x="90.85" y="264.58" width="310.52" height="0.8"/><rect class="cls-3" x="64.62" y="257.83" width="337.49" height="0.8"/><path class="cls-3" d="M85,267.13A2.2,2.2,0,1,1,87.75,265,2.47,2.47,0,0,1,85,267.13Zm0-3.49a1.38,1.38,0,1,0,1.7,1.34A1.56,1.56,0,0,0,85,263.64Z" transform="translate(3.82)"/><path class="cls-3" d="M58.82,260.38a2.2,2.2,0,1,1,2.7-2.15A2.48,2.48,0,0,1,58.82,260.38Zm0-3.49a1.38,1.38,0,1,0,1.69,1.34A1.56,1.56,0,0,0,58.82,256.89Z" transform="translate(3.82)"/><path class="cls-3" d="M628.22,230H397.77v-.8H628.22c17.69,0,32.09-11.39,32.09-25.39V173.68h1v30.13C661.32,218.25,646.47,230,628.22,230Z" transform="translate(3.82)"/><path class="cls-3" d="M630,237H397.77v-.8H630c22.19,0,40.25-14.29,40.25-31.84V190.93h1v13.43C671.27,222.36,652.76,237,630,237Z" transform="translate(3.82)"/><path class="cls-3" d="M631.28,244.5H397.77v-.8H631.28c27.3,0,49.52-17.58,49.52-39.18V184h1v20.51C681.81,226.56,659.14,244.5,631.28,244.5Z" transform="translate(3.82)"/><path class="cls-3" d="M633.46,252H397.77v-.8H633.46c30.71,0,55.7-19.77,55.7-44.07V162.85h1v44.28C690.17,231.87,664.73,252,633.46,252Z" transform="translate(3.82)"/><path class="cls-3" d="M660.81,174.33a2.2,2.2,0,1,1,2.71-2.14A2.47,2.47,0,0,1,660.81,174.33Zm0-3.49a1.38,1.38,0,1,0,1.7,1.35A1.56,1.56,0,0,0,660.81,170.84Z" transform="translate(3.82)"/><path class="cls-3" d="M670.76,191.71a2.2,2.2,0,1,1,2.71-2.14A2.48,2.48,0,0,1,670.76,191.71Zm0-3.48a1.38,1.38,0,1,0,1.7,1.34A1.55,1.55,0,0,0,670.76,188.23Z" transform="translate(3.82)"/><path class="cls-3" d="M681.3,184.77a2.2,2.2,0,1,1,2.71-2.14A2.48,2.48,0,0,1,681.3,184.77Zm0-3.48a1.38,1.38,0,1,0,1.7,1.34A1.55,1.55,0,0,0,681.3,181.29Z" transform="translate(3.82)"/><path class="cls-3" d="M689.66,163.65a2.2,2.2,0,1,1,2.71-2.14A2.47,2.47,0,0,1,689.66,163.65Zm0-3.49a1.38,1.38,0,1,0,1.7,1.35A1.56,1.56,0,0,0,689.66,160.16Z" transform="translate(3.82)"/><path class="cls-3" d="M661.83,349.71h-1V319.57c0-14-14.39-25.38-32.08-25.38H398.29v-.8H628.74c18.25,0,33.09,11.75,33.09,26.18Z" transform="translate(3.82)"/><path class="cls-3" d="M671.78,332.46h-1V319c0-17.56-18-31.84-40.24-31.84H398.29v-.8H630.53c22.74,0,41.25,14.64,41.25,32.64Z" transform="translate(3.82)"/><path class="cls-3" d="M682.32,339.37h-1V318.86c0-21.6-22.21-39.17-49.51-39.17H398.29v-.8H631.8c27.86,0,50.52,17.93,50.52,40Z" transform="translate(3.82)"/><path class="cls-3" d="M690.69,360.54h-1V316.26c0-24.3-25-44.07-55.7-44.07H398.29v-.8H634c31.27,0,56.72,20.13,56.72,44.87Z" transform="translate(3.82)"/><path class="cls-3" d="M661.33,353.34a2.2,2.2,0,1,1,2.7-2.14A2.48,2.48,0,0,1,661.33,353.34Zm0-3.48A1.38,1.38,0,1,0,663,351.2,1.55,1.55,0,0,0,661.33,349.86Z" transform="translate(3.82)"/><path class="cls-3" d="M671.28,336a2.2,2.2,0,1,1,2.7-2.14A2.48,2.48,0,0,1,671.28,336Zm0-3.48a1.38,1.38,0,1,0,1.69,1.34A1.55,1.55,0,0,0,671.28,332.48Z" transform="translate(3.82)"/><path class="cls-3" d="M681.82,342.9a2.2,2.2,0,1,1,2.7-2.14A2.48,2.48,0,0,1,681.82,342.9Zm0-3.48a1.38,1.38,0,1,0,1.69,1.34A1.55,1.55,0,0,0,681.82,339.42Z" transform="translate(3.82)"/><path class="cls-3" d="M690.18,364a2.2,2.2,0,1,1,2.71-2.14A2.48,2.48,0,0,1,690.18,364Zm0-3.48a1.38,1.38,0,1,0,1.69,1.34A1.55,1.55,0,0,0,690.18,360.54Z" transform="translate(3.82)"/><rect class="cls-3" x="402.11" y="257.79" width="310.52" height="0.8"/><rect class="cls-3" x="401.37" y="264.54" width="337.48" height="0.8"/><path class="cls-3" d="M710.79,260.33a2.2,2.2,0,1,1,2.71-2.14A2.47,2.47,0,0,1,710.79,260.33Zm0-3.48a1.38,1.38,0,1,0,1.7,1.34A1.55,1.55,0,0,0,710.79,256.85Z" transform="translate(3.82)"/><path class="cls-3" d="M737,267.08a2.2,2.2,0,1,1,2.71-2.14A2.48,2.48,0,0,1,737,267.08Zm0-3.48a1.38,1.38,0,1,0,1.69,1.34A1.55,1.55,0,0,0,737,263.6Z" transform="translate(3.82)"/></g></svg>