<svg xmlns="http://www.w3.org/2000/svg" viewBox="0 0 607.73 180"><defs><style>.cls-1{fill:#fff;}</style></defs><title>logo</title><g id="dex"><path id="x" class="cls-1" d="M530.42,19.48l27.06,50.38L585,19.48h40l-48.84,80.74,47.52,80.3H583.88l-26.4-49.28-26.62,49.28H491l47.74-80.3-48.4-80.74Z" transform="translate(-17.29 -10)"/><path id="e" class="cls-1" d="M359,54.18c0-30.36,22.22-35.42,37.62-35.2,0,0,52.14.88,71.28,3.52V52.64H406.56c-11.44,0-11.44,6.38-11.44,12.32V83.22l62.48,2.2v29.92l-62.48,2v18.26c0,11.66,7.26,11.44,13.64,11.44h59.18v29.92c-16.94,2.2-69.08,3.74-69.08,3.74-14.3.66-39.82-2.42-39.82-34.1Z" transform="translate(-17.29 -10)"/><path id="d" class="cls-1" d="M207.24,19.48h71.5c45.1,0,55.44,38.72,55.44,81.18,0,51.26-17.38,79.86-55.44,79.86h-71.5Zm68.2,129.8c16.72,0,22.66-17.16,22.66-48.84,0-41.58-8.58-49.72-22.66-49.72H243.32v98.56Z" transform="translate(-17.29 -10)"/></g><g id="logo"><path id="nd" class="cls-1" d="M18,89.16c-.27,7.37-.33,13.51-.33,18a90.94,90.94,0,0,0,.51,13.61,44,44,0,0,0,.79,4.68,42.29,42.29,0,0,0,4.76,11.68,41.11,41.11,0,0,0,11.11,11.64L88.72,190c.63-10.81.65-19.35.53-25.3a45,45,0,0,0-.87-9.17,45.64,45.64,0,0,0-6.29-15.11c-.58-.94-1.21-1.85-1.88-2.73a31.44,31.44,0,0,0-6.38-6.24Z" transform="translate(-17.29 -10)"/><path id="nx" class="cls-1" d="M18.41,10.27a264.47,264.47,0,0,0-.9,34.93A50.61,50.61,0,0,0,20.1,60.6a47.81,47.81,0,0,0,8.42,14.8h0A54.14,54.14,0,0,0,34,81.15c2.32,2.08,62.56,47.5,144.52,108.85.74-18.74.8-32.55.55-36.09a60.69,60.69,0,0,0-.84-6.58s-.3-1.51-.67-3a51.59,51.59,0,0,0-6.31-14.55,59.93,59.93,0,0,0-9.91-11.47C152.49,110.55,96.2,67.84,18.41,10.27Z" transform="translate(-17.29 -10)"/><path id="nu" class="cls-1" d="M107.63,10c-.28,7.37-.34,13.51-.34,18,0,10.14.33,12.67.68,14.62A42.78,42.78,0,0,0,113.36,58a36.13,36.13,0,0,0,11.12,11.63L178.4,110.8c.51-9.7.6-17.7.54-23.58a49.6,49.6,0,0,0-.87-10.9,46.68,46.68,0,0,0-6.29-15.11,32,32,0,0,0-8.27-9Z" transform="translate(-17.29 -10)"/></g></svg>